# xmcd CD database file
#
# Track frame offsets:
#	182
#	28742
#	53775
#	72997
#	96715
#	118257
#	149745
#	190155
#	214485
#	231860
#	252517
#
# Disc length: 3761 seconds
#
# Revision: 0
# Processed by: cddbd v1.5.1PL2 Copyright (c) Steve Scherf et al.
# Submitted via: CDex 1.51
#
DISCID=b80eaf0b
DTITLE=Les Haricots Rouges - Les Haricots Rouges and Sam Lee
DYEAR=1988
DGENRE=Jazz
TTITLE0=Caldonia
TTITLE1=The Nearness Of You
TTITLE2=Mama Ines
TTITLE3=Upset Me baby
TTITLE4=Stardust
TTITLE5=Honky Tonk Blues
TTITLE6=Climax rag
TTITLE7=Just A closer Walk With Thee
TTITLE8=The Glory Of Love
TTITLE9=blueberry hill
TTITLE10=Hi Ho Silver
EXTD=YEAR: 1988
EXTT0=
EXTT1=
EXTT2=
EXTT3=
EXTT4=
EXTT5=
EXTT6=
EXTT7=
EXTT8=
EXTT9=
EXTT10=
PLAYORDER=
